<?xml version="1.0" encoding="utf-8"?>
<!-- Generator: Adobe Illustrator 22.1.0, SVG Export Plug-In . SVG Version: 6.00 Build 0)  -->
<svg version="1.1" id="Layer_1" xmlns="http://www.w3.org/2000/svg" xmlns:xlink="http://www.w3.org/1999/xlink" x="0px" y="0px"
	 viewBox="0 0 800 646" style="enable-background:new 0 0 800 646;" xml:space="preserve">
<style type="text/css">
	.st0{fill:#006BA0;}
	.st1{fill:#0083B7;}
	.st2{fill:#00C4F2;}
</style>
<g>
	<polygon class="st0" points="380.5,477 121.6,477 251.1,252.7 380.5,28.5 510,252.7 639.5,477 	"/>
</g>
<g>
	<polygon class="st1" points="444.1,477 228.9,477 336.5,290.6 444.1,104.3 551.6,290.6 659.2,477 	"/>
</g>
<g>
	<polygon class="st2" points="506.3,477 333.6,477 419.9,327.4 506.3,177.9 592.6,327.4 679,477 	"/>
</g>
<g>
	<g>
		<path d="M279.6,560.3c-3.3,11.1-11.5,19.5-26.3,19.5c-20.1,0-30.7-16-30.7-35.7c0-18.9,10.4-36.1,30.8-36.1
			c15.1,0,24,8.4,26.3,20.1h-5.4c-3.2-9.1-9.1-15.1-21.2-15.1c-17.4,0-24.7,15.9-24.7,31c0,15,7.2,30.8,25.1,30.8
			c11.4,0,17.2-5.9,20.7-14.5H279.6z"/>
		<path d="M326.4,569.5c0,4.4,0.4,7.9,0.7,9.5h-4.8c-0.4-1.2-0.7-3.4-0.9-7.7c-1.7,3.7-6.1,8.9-16.4,8.9c-11.6,0-16.6-7.5-16.6-15
			c0-11,8.5-16,23.5-16c4.2,0,7.5,0,9.5,0v-5.1c0-5-1.5-11.7-12.9-11.7c-10.1,0-11.6,5.3-12.7,9.4h-5c0.6-5.5,4-14,17.8-14
			c11.4,0,17.8,4.8,17.8,15.8V569.5z M321.5,553.5c-1.9,0-6.5,0-9.8,0c-11.1,0-18,2.9-18,11.5c0,6.3,4.5,10.6,11.5,10.6
			c14.3,0,16.3-9.5,16.3-20.3V553.5z"/>
		<path d="M342.9,565.2c1.7,6.5,6.3,10.4,14.2,10.4c8.9,0,12.5-4.1,12.5-9.7c0-5.7-2.4-8.5-13.6-11.2c-12.9-3.1-16.1-7-16.1-13.6
			c0-6.9,5.2-13.3,16.5-13.3c11.3,0,16.7,6.9,17.5,14h-5c-0.9-4.2-4.2-9.4-12.7-9.4c-8.7,0-11.2,4.3-11.2,8.3
			c0,4.6,2.4,6.9,12.3,9.3c14.1,3.4,17.6,8,17.6,15.5c0,9.1-7.4,14.7-17.9,14.7c-11.4,0-17.8-6-19.2-15H342.9z"/>
		<path d="M424.1,564.3c-2.4,8.8-8.2,15.9-19.4,15.9c-12.5,0-21.4-9.3-21.4-26c0-13.7,7.3-26.4,22-26.4c12.7,0,17.9,9,18.8,16H419
			c-1.5-5.8-5.3-11.3-13.8-11.3c-10.6,0-16.6,9-16.6,21.5c0,11.9,5.6,21.5,16.1,21.5c7.3,0,11.7-3.7,14.3-11.2H424.1z"/>
		<path d="M470,569.5c0,4.4,0.4,7.9,0.7,9.5h-4.8c-0.4-1.2-0.7-3.4-0.9-7.7c-1.7,3.7-6.1,8.9-16.4,8.9c-11.6,0-16.6-7.5-16.6-15
			c0-11,8.5-16,23.5-16c4.2,0,7.5,0,9.5,0v-5.1c0-5-1.5-11.7-12.9-11.7c-10.1,0-11.6,5.3-12.7,9.4h-5c0.6-5.5,4-14,17.8-14
			c11.4,0,17.8,4.8,17.8,15.8V569.5z M465.1,553.5c-1.9,0-6.5,0-9.8,0c-11.1,0-18,2.9-18,11.5c0,6.3,4.5,10.6,11.5,10.6
			c14.3,0,16.3-9.5,16.3-20.3V553.5z"/>
		<path d="M525.1,505.3v59.3c0,4.8,0,9.4,0.1,14.4h-4.8c-0.2-1.2-0.3-5.9-0.3-8.4c-2.5,6.1-8.1,9.6-16.8,9.6
			c-13,0-20.8-10.6-20.8-25.6c0-15.4,8.5-26.8,22.1-26.8c10,0,14,4.3,15.5,7.5v-30H525.1z M487.8,554.4c0,13.7,7.1,21.1,15.7,21.1
			c13.2,0,16.8-9.1,16.8-22.7c0-12.9-3.1-20.3-15.9-20.3C494.5,532.5,487.8,540.4,487.8,554.4z"/>
		<path d="M542.6,554.6c0.1,12.9,6.6,20.9,16.2,20.9c9.4,0,12.6-5.3,14.4-9.4h5.1c-2.1,6.6-7.4,14.1-19.7,14.1
			c-15.2,0-21.1-13.1-21.1-25.8c0-14.3,7.1-26.6,21.7-26.6c15.4,0,20.3,13.3,20.3,22.7c0,1.4,0,2.8-0.1,4.1H542.6z M574.3,550.2
			c-0.1-9.9-5.5-17.7-15.3-17.7c-10.3,0-15,7.2-16.1,17.7H574.3z"/>
	</g>
</g>
</svg>
