<?xml version="1.0" encoding="utf-8"?>
<!-- Generator: Adobe Illustrator 22.1.0, SVG Export Plug-In . SVG Version: 6.00 Build 0)  -->
<svg version="1.1" xmlns="http://www.w3.org/2000/svg" xmlns:xlink="http://www.w3.org/1999/xlink" x="0px" y="0px"
	 viewBox="0 0 492 189" style="enable-background:new 0 0 492 189;" xml:space="preserve">
<style type="text/css">
	.st0{fill:none;stroke:#000000;stroke-width:3;stroke-miterlimit:10;}
	.st1{fill:#FFFFFF;}
	.st2{fill:#0083B7;}
	.st3{fill:#006BA0;}
	.st4{opacity:0.7;fill:#FFFFFF;stroke:#FFFFFF;stroke-width:3;stroke-miterlimit:10;}
	.st5{display:none;}
	.st6{display:inline;fill:#FFFFFF;stroke:#000000;stroke-width:3;stroke-miterlimit:10;}
	.st7{fill:none;stroke:#FF0000;stroke-width:3;stroke-miterlimit:10;}
	.st8{fill:#3FA9F5;}
</style>
<g id="Layer_5">
	<g>
		<line class="st0" x1="30.5" y1="159.5" x2="414.5" y2="159.5"/>
	</g>
	<line class="st0" x1="30.5" y1="159.5" x2="126.5" y2="93.5"/>
	<line class="st0" x1="222.5" y1="27.5" x2="126.5" y2="93.5"/>
	<line class="st0" x1="223.5" y1="94.5" x2="127.5" y2="94.5"/>
	<line class="st0" x1="223.5" y1="94.5" x2="318.5" y2="93.5"/>
	<g>
		<circle class="st1" cx="127" cy="94" r="16.5"/>
		<path class="st2" d="M127,79c8.3,0,15,6.7,15,15s-6.7,15-15,15s-15-6.7-15-15S118.7,79,127,79 M127,76c-9.9,0-18,8.1-18,18
			s8.1,18,18,18s18-8.1,18-18S136.9,76,127,76L127,76z"/>
	</g>
	<g>
		<circle class="st1" cx="31" cy="160" r="16.5"/>
		<path class="st3" d="M31,145c8.3,0,15,6.7,15,15s-6.7,15-15,15s-15-6.7-15-15S22.7,145,31,145 M31,142c-9.9,0-18,8.1-18,18
			s8.1,18,18,18s18-8.1,18-18S40.9,142,31,142L31,142z"/>
	</g>
	<g>
		<circle class="st1" cx="127" cy="160" r="16.5"/>
		<path class="st3" d="M127,145c8.3,0,15,6.7,15,15s-6.7,15-15,15s-15-6.7-15-15S118.7,145,127,145 M127,142c-9.9,0-18,8.1-18,18
			s8.1,18,18,18s18-8.1,18-18S136.9,142,127,142L127,142z"/>
	</g>
	<g>
		<circle class="st1" cx="223" cy="160" r="16.5"/>
		<path class="st3" d="M223,145c8.3,0,15,6.7,15,15s-6.7,15-15,15s-15-6.7-15-15S214.7,145,223,145 M223,142c-9.9,0-18,8.1-18,18
			s8.1,18,18,18s18-8.1,18-18S232.9,142,223,142L223,142z"/>
	</g>
	<g>
		<circle class="st1" cx="319" cy="160" r="16.5"/>
		<path class="st3" d="M319,145c8.3,0,15,6.7,15,15s-6.7,15-15,15s-15-6.7-15-15S310.7,145,319,145 M319,142c-9.9,0-18,8.1-18,18
			s8.1,18,18,18s18-8.1,18-18S328.9,142,319,142L319,142z"/>
	</g>
</g>
<g id="Layer_2">
	<rect x="3.5" y="2.5" class="st4" width="489" height="187"/>
</g>
<g id="Layer_3" class="st5">
	<path class="st6" d="M106.5,256.5c0,0,50,6,50-34c0-37,46-32,46-32"/>
	<path class="st6" d="M206.5,190.5c0,0,50,6,50-34c0-37,46-32,46-32"/>
	<path class="st6" d="M398.5,190.5c0,0-50,6-50-34c0-37-46-32-46-32"/>
	<path class="st6" d="M491.5,256.5c0,0-50,6-50-34c0-37-46-32-46-32"/>
</g>
<g id="Layer_4">
	<line class="st7" x1="222.5" y1="27.5" x2="318.5" y2="93.5"/>
	<line class="st7" x1="414.5" y1="159.5" x2="318.5" y2="93.5"/>
</g>
<g id="Layer_1">
	<g>
		<circle class="st1" cx="319" cy="94" r="16.5"/>
		<path class="st2" d="M319,79c8.3,0,15,6.7,15,15s-6.7,15-15,15s-15-6.7-15-15S310.7,79,319,79 M319,76c-9.9,0-18,8.1-18,18
			s8.1,18,18,18s18-8.1,18-18S328.9,76,319,76L319,76z"/>
	</g>
	<g>
		<circle class="st1" cx="415" cy="160" r="16.5"/>
		<path class="st3" d="M415,145c8.3,0,15,6.7,15,15s-6.7,15-15,15s-15-6.7-15-15S406.7,145,415,145 M415,142c-9.9,0-18,8.1-18,18
			s8.1,18,18,18s18-8.1,18-18S424.9,142,415,142L415,142z"/>
	</g>
	<g>
		<circle class="st1" cx="223" cy="28" r="16.5"/>
		<path class="st8" d="M223,13c8.3,0,15,6.7,15,15s-6.7,15-15,15s-15-6.7-15-15S214.7,13,223,13 M223,10c-9.9,0-18,8.1-18,18
			s8.1,18,18,18s18-8.1,18-18S232.9,10,223,10L223,10z"/>
	</g>
	<g>
		<g>
			<path d="M251.2,23.6h5.1v0.6h-4.4v3.2h4.2V28h-4.2v4h-0.6V23.6z"/>
			<path d="M262.7,27.9h-4.3v3.5h4.7L263,32h-5.2v-8.4h5.1v0.6h-4.5v3.1h4.3V27.9z"/>
			<path d="M265.6,29.1l-1.1,2.9h-0.7l3.1-8.4h0.8l3.2,8.4h-0.7l-1.1-2.9H265.6z M268.9,28.5c-0.9-2.5-1.4-3.7-1.6-4.3h0
				c-0.2,0.6-0.7,2.1-1.5,4.3H268.9z"/>
			<path d="M274.2,24.2h-2.8v-0.6h6.3v0.6h-2.8V32h-0.7V24.2z"/>
			<path d="M279.5,23.6v5.1c0,2.2,1.3,2.8,2.4,2.8c1.4,0,2.4-0.6,2.4-2.8v-5.1h0.7v5c0,2.6-1.4,3.4-3.1,3.4c-1.7,0-3.1-0.9-3.1-3.3
				v-5.2H279.5z"/>
			<path d="M288,28.1V32h-0.7v-8.4h3c1.7,0,2.5,0.9,2.5,2.2c0,1.1-0.6,1.8-1.6,2c0.9,0.2,1.4,0.8,1.4,2.2v0.3c0,0.6,0,1.4,0.1,1.7
				h-0.7c-0.2-0.4-0.1-1-0.1-1.8V30c0-1.4-0.4-2-2-2H288z M288,27.5h2c1.5,0,2.2-0.6,2.2-1.7c0-1-0.7-1.6-2-1.6H288V27.5z"/>
			<path d="M299.8,27.9h-4.3v3.5h4.7l-0.1,0.6h-5.2v-8.4h5.1v0.6h-4.5v3.1h4.3V27.9z"/>
		</g>
	</g>
	<g>
		<g>
			<path d="M347.2,89.6h2.8c2.3,0,3.9,1.6,3.9,4.1c0,2.5-1.6,4.3-3.9,4.3h-2.8V89.6z M347.8,97.4h2c2.2,0,3.3-1.6,3.3-3.6
				c0-1.8-1-3.6-3.3-3.6h-2V97.4z"/>
			<path d="M360.6,93.9h-4.3v3.5h4.7l-0.1,0.6h-5.2v-8.4h5.1v0.6h-4.5v3.1h4.3V93.9z"/>
			<path d="M364.8,98l-3.1-8.4h0.7L364,94c0.5,1.3,1,2.7,1.2,3.4h0c0.2-0.6,0.8-2.1,1.2-3.3l1.7-4.4h0.7l-3.2,8.4H364.8z"/>
			<path d="M375.1,93.9h-4.3v3.5h4.7l-0.1,0.6h-5.2v-8.4h5.1v0.6h-4.5v3.1h4.3V93.9z"/>
			<path d="M377.2,89.6h0.6v7.8h4.5l-0.1,0.6h-5V89.6z"/>
			<path d="M390.7,93.7c0,2.3-1.2,4.4-3.8,4.4c-2.4,0-3.7-1.9-3.7-4.3c0-2.4,1.3-4.3,3.8-4.3C389.3,89.5,390.7,91.3,390.7,93.7z
				 M383.9,93.8c0,1.9,1.1,3.8,3.1,3.8c2.2,0,3.1-1.8,3.1-3.8c0-2-1-3.7-3.1-3.7C384.8,90.1,383.9,91.9,383.9,93.8z"/>
			<path d="M392.6,89.6h3c1.5,0,2.6,0.9,2.6,2.3c0,1.5-1,2.4-2.7,2.4h-2.3V98h-0.7V89.6z M393.3,93.7h2.3c1.4,0,1.9-0.7,1.9-1.8
				c0-1.1-0.7-1.8-1.9-1.8h-2.4V93.7z"/>
		</g>
	</g>
	<g>
		<g>
			<path d="M450.4,160.1c0-1.6,0-3.2,0-4.1h0c-0.3,1.1-2,5.3-3.1,7.9h-0.6c-0.8-2.1-2.6-6.7-2.9-7.9h0c0.1,1,0.1,2.9,0.1,4.4v3.6
				h-0.6v-8.4h1c1.2,2.9,2.6,6.6,2.9,7.6h0c0.2-0.6,1.9-4.8,3-7.6h1v8.4h-0.6V160.1z"/>
			<path d="M454.3,161.1l-1.1,2.9h-0.7l3.1-8.4h0.8l3.2,8.4h-0.7l-1.1-2.9H454.3z M457.6,160.5c-0.9-2.5-1.4-3.7-1.6-4.3h0
				c-0.2,0.6-0.7,2.1-1.5,4.3H457.6z"/>
			<path d="M461.2,161.7c0.3,1.1,1,1.8,2.4,1.8c1.5,0,2.1-0.8,2.1-1.7c0-0.9-0.4-1.5-2.3-2c-1.8-0.4-2.5-1-2.5-2.2
				c0-1.1,0.8-2.1,2.6-2.1c1.8,0,2.6,1.1,2.7,2.1h-0.7c-0.2-0.9-0.8-1.5-2.1-1.5c-1.2,0-1.9,0.6-1.9,1.5c0,0.9,0.6,1.3,2.1,1.7
				c2.4,0.6,2.7,1.5,2.7,2.5c0,1.2-0.9,2.3-2.8,2.3c-2.1,0-2.9-1.2-3-2.4H461.2z"/>
			<path d="M469.9,156.2h-2.8v-0.6h6.3v0.6h-2.8v7.8h-0.7V156.2z"/>
			<path d="M479.6,159.9h-4.3v3.5h4.7l-0.1,0.6h-5.2v-8.4h5.1v0.6h-4.5v3.1h4.3V159.9z"/>
			<path d="M482.3,160.1v3.9h-0.7v-8.4h3c1.7,0,2.5,0.9,2.5,2.2c0,1.1-0.6,1.8-1.6,2c0.9,0.2,1.4,0.8,1.4,2.2v0.3
				c0,0.6,0,1.4,0.1,1.7h-0.7c-0.2-0.4-0.1-1-0.1-1.8V162c0-1.4-0.4-2-2-2H482.3z M482.3,159.5h2c1.5,0,2.2-0.6,2.2-1.7
				c0-1-0.7-1.6-2-1.6h-2.2V159.5z"/>
		</g>
	</g>
</g>
</svg>
